# xmcd
#
# Track frame offsets:
#	150
#	13966
#	28875
#	41206
#	56320
#	72784
#	88328
#	102910
#	116998
#	130919
#	145663
#	158494
#
# Disc length: 2297 seconds
#
# Revision: 0
# Processed by: cddbd v1.4PL0 Copyright (c) Steve Scherf et al.
# Submitted via: EasyCDDAExtractor 4.6.0.1
#
DISCID=a808f70c
DTITLE=Banda Zarape - Caliente, Caliente
DYEAR=1996
DGENRE=Latin
TTITLE0=PONTE EL ZARAPE
TTITLE1=EL PULPO
TTITLE2=SECRETO DE AMOR
TTITLE3=HEY, HEY TU
TTITLE4=TU Y YO SOMOS UNO MISMO
TTITLE5=LA GORDA
TTITLE6=CALIENTE, CALIENTE
TTITLE7=MEJOR ME PONGO A BAILAR
TTITLE8=AMOR, AMOR
TTITLE9=A LA SOMBRA DE LOS ANGELES
TTITLE10=DEJAME DECIRTE
TTITLE11=MAMBO, MAMBO
EXTD=
EXTT0=
EXTT1=
EXTT2=
EXTT3=
EXTT4=
EXTT5=
EXTT6=
EXTT7=
EXTT8=
EXTT9=
EXTT10=
EXTT11=
PLAYORDER=
